<?xml version="1.0" encoding="UTF-8" standalone="no"?>
<svg
   xmlns:dc="http://purl.org/dc/elements/1.1/"
   xmlns:cc="http://creativecommons.org/ns#"
   xmlns:rdf="http://www.w3.org/1999/02/22-rdf-syntax-ns#"
   xmlns:svg="http://www.w3.org/2000/svg"
   xmlns="http://www.w3.org/2000/svg"
   xmlns:sodipodi="http://sodipodi.sourceforge.net/DTD/sodipodi-0.dtd"
   xmlns:inkscape="http://www.inkscape.org/namespaces/inkscape"
   version="1.1"
   id="svg833"
   width="772"
   height="250"
   viewBox="0 0 772 250"
   sodipodi:docname="banner-772x250.svg"
   inkscape:version="1.0beta1 (32d4812, 2019-09-19)"
   inkscape:export-filename="/Users/leon/gitprojects/svnplugindir/assets/banner-772x250.png"
   inkscape:export-xdpi="96"
   inkscape:export-ydpi="96">
  <metadata
     id="metadata839">
    <rdf:RDF>
      <cc:Work
         rdf:about="">
        <dc:format>image/svg+xml</dc:format>
        <dc:type
           rdf:resource="http://purl.org/dc/dcmitype/StillImage" />
        <dc:title />
      </cc:Work>
    </rdf:RDF>
  </metadata>
  <defs
     id="defs837" />
  <sodipodi:namedview
     pagecolor="#ffffff"
     bordercolor="#666666"
     inkscape:document-rotation="0"
     borderopacity="1"
     objecttolerance="10"
     gridtolerance="10"
     guidetolerance="10"
     inkscape:pageopacity="0"
     inkscape:pageshadow="2"
     inkscape:window-width="1600"
     inkscape:window-height="907"
     id="namedview835"
     showgrid="false"
     inkscape:zoom="0.32601166"
     inkscape:cx="487.01364"
     inkscape:cy="538.42428"
     inkscape:window-x="0"
     inkscape:window-y="23"
     inkscape:window-maximized="0"
     inkscape:current-layer="layer3" />
  <g
     inkscape:groupmode="layer"
     id="layer3"
     inkscape:label="background">
    <rect
       style="fill:#ffffff;stroke:none"
       id="rect1511"
       width="772"
       height="250"
       x="0"
       y="0" />
  </g>
  <g
     inkscape:groupmode="layer"
     inkscape:label="Image"
     id="g841" />
  <g
     inkscape:groupmode="layer"
     id="layer4"
     inkscape:label="logo">
    <g
       transform="matrix(0.5,0,0,0.5,311.86387,50.25025)"
       id="g867">
      <g
         id="g865">
        <g
           id="g847">
          <path
             inkscape:connector-curvature="0"
             fill="#444E56"
             d="m 98.95,107.99 c 0,0 32.507,129.777 127.776,139.78 0,0 67.016,-46.51 39.508,-161.784 0,10e-4 -77.265,-31.007 -167.284,22.004 z"
             id="path833" />
          <path
             inkscape:connector-curvature="0"
             fill="#35ACCC"
             d="m 261.484,90.988 c 4.978,3.982 7.752,34.008 5.5,63.264 -2.25,29.255 -22.754,75.015 -42.008,86.768 0,0 -42.761,-8.252 -74.266,-50.011 -31.507,-41.759 -40.259,-77.266 -37.759,-83.017 2.501,-5.752 37.258,-20.255 71.766,-25.006 34.508,-4.751 70.515,3.001 76.767,8.002 z"
             id="path835" />
          <path
             inkscape:connector-curvature="0"
             fill="#1576A6"
             d="m 224.277,230.516 c 0,0 -33.56,-10.502 -51.063,-28.006 0,0 8.137,19.854 33.559,32.45 10.85,4.638 18.203,6.059 18.203,6.059 18.526,-11.308 38.203,-54.098 41.668,-83.379 -5.01,14.94 -19.052,51.557 -42.367,72.876 z"
             id="path837" />
          <g
             id="g845">
            <path
               inkscape:connector-curvature="0"
               fill="#7CDCFF"
               d="m 261.484,90.988 c -3.945,-3.156 -19.746,-7.404 -39.541,-8.918 10.164,2.624 22.051,6.513 29.537,11.668 9.08,6.251 13.551,15.604 15.684,22.148 -0.961,-13.056 -3,-22.755 -5.68,-24.898 z"
               id="path839" />
            <path
               inkscape:connector-curvature="0"
               fill="#7CDCFF"
               d="m 161.291,87.585 c 22.479,3.431 43.682,50.912 43.682,50.912 L 188.004,82.571 c -1.096,0.125 -2.191,0.265 -3.285,0.414 -7.93,1.092 -15.867,2.702 -23.428,4.6 z"
               id="path841" />
            <path
               inkscape:connector-curvature="0"
               fill="#7CDCFF"
               d="m 145.96,162.251 c -3.292,-11.629 -10.817,-58.304 3.612,-71.417 -19.845,6.039 -35,13.433 -36.619,17.157 -2.5,5.751 6.251,41.258 37.759,83.017 12.554,16.639 26.892,27.952 39.601,35.549 -19.252,-18.562 -41.233,-53.28 -44.353,-64.306 z"
               id="path843" />
          </g>
        </g>
        <path
           inkscape:connector-curvature="0"
           fill="#ED3E00"
           d="m 258.232,73.734 c 0,0 -85.018,-23.004 -169.285,29.256 0,0 21.004,104.271 100.021,142.529 0,0 -26.756,-6.001 -43.009,6.002 0,0 7.752,-24.256 2.25,-29.758 -5.501,-5.501 -19.003,-5 -19.003,-5 0,0 2.75,-16.004 -3.501,-20.005 -6.251,-4 -31.007,7.752 -31.007,7.752 0,0 26.256,-34.979 3,-46.871 0,0 6.002,-8.891 -11.252,-17.142 0,0 21.255,-16.503 -37.258,-51.262 0,0 63.513,8.98 57.512,-12.263 0,0 29.506,9.263 30.506,-17.493 0,0 29.006,32.757 37.508,-22.004 0,0 15.597,44.027 73.765,21.755 10e-4,0.001 2.503,7.752 9.753,14.504 z"
           id="path849" />
        <path
           inkscape:connector-curvature="0"
           fill="#444E56"
           d="m 75.195,144.498 c 0,0 17.253,1.139 15.002,14.196 0,0 28.006,6.559 -10.752,56.067 0,0 -22.504,6.752 -42.509,26.256 0,0 14.034,-20.504 31.522,-34.757 17.488,-14.254 23.489,-25.256 16.988,-26.756 -6.501,-1.501 -44.26,16.253 -61.763,61.513 0.002,0.002 9.754,-45.258 51.512,-96.519 z"
           id="path851" />
        <path
           inkscape:connector-curvature="0"
           fill="#444E56"
           d="m 92.199,211.513 c 0,0 18.003,-3.251 30.506,0 0,0 8.252,-22.004 -30.506,0 z"
           id="path853" />
        <path
           inkscape:connector-curvature="0"
           fill="#444E56"
           d="m 134.207,221.014 c 0,0 5.501,4.336 -16.503,5.543 -22.005,1.21 -62.763,5.71 -86.769,34.967 0,0 22.255,-27.257 112.024,-20.505 0,0 1.75,-10.417 0,-14.462 -1.75,-4.042 -8.752,-5.543 -8.752,-5.543 z"
           id="path855" />
        <path
           inkscape:connector-curvature="0"
           fill="#444E56"
           d="m 177.883,126.745 c 1.945,0 6.336,14.336 5.001,17.837 -1.333,3.501 -10.335,7.334 -10.335,7.334 0,0 12.17,-0.499 13.669,4.335 1.501,4.835 1.835,6 1.835,6 0,0 10.168,-29.338 13.836,-39.674 3.668,-10.335 4.168,-12.669 12.836,-13.338 8.668,-0.665 11.002,1.169 10.668,3.836 -0.332,2.667 -2,7.501 -2,7.501 0,0 1.002,-1.834 10.17,0.5 9.168,2.333 28.172,8.502 30.338,9.668 2.168,1.167 4.67,3.834 4.17,8.002 -0.5,4.168 1.166,8.001 -6.502,11.669 -7.67,3.668 -29.34,14.67 -32.008,14.502 -2.668,-0.166 -4.168,-3.166 -4.334,-9.001 -0.166,-5.834 -0.5,-10.501 3.836,-11.835 4.332,-1.334 6.832,-2.5 6.832,-2.5 0,0 -10.502,-1.335 -12.002,-3.669 -1.5,-2.333 -2.666,-11.502 -2.666,-11.502 0,0 -7.836,21.004 -11.338,31.173 -3.5,10.169 -5.332,20.171 -7.666,21.838 -2.336,1.667 -12.838,3.334 -15.004,2.501 -2.166,-0.834 -2.668,-6.002 -1.334,-10.002 0,0 -2.334,0.835 -6.168,0.166 -3.836,-0.666 -31.507,-3.5 -34.007,-4.834 -2.5,-1.334 -4.167,-7.167 -4.667,-11.169 -0.5,-4 4.001,-7.667 11.334,-13.002 7.336,-5.333 21.004,-16.336 25.506,-16.336 z"
           id="path857" />
        <path
           inkscape:connector-curvature="0"
           fill="#FFFFFF"
           d="m 210.059,115.909 9.502,-1 c 0,0 -14.838,39.175 -20.34,59.847 l -8.502,1.332 c 0,0 9.836,-36.673 19.34,-60.179 z"
           id="path859" />
        <path
           inkscape:connector-curvature="0"
           fill="#FFFFFF"
           d="m 226.895,125.245 1.332,8.501 22.506,6 -20.17,10.169 0.166,8.835 c 0,0 20.672,-10.668 30.84,-14.169 v -8.835 c -0.001,0.001 -19.84,-7.834 -34.674,-10.501 z"
           id="path861" />
        <path
           inkscape:connector-curvature="0"
           fill="#FFFFFF"
           d="m 175.716,133.413 2.169,8.585 c 0,0 -15.672,9.751 -20.504,13.419 l 24.671,3.334 1.499,7.669 -34.173,-4.001 -2.834,-8.335 z"
           id="path863" />
      </g>
    </g>
  </g>
</svg>
